<svg xmlns="http://www.w3.org/2000/svg" width="16" height="16" fill="none" viewBox="0 0 16 16"><path stroke="#000" stroke-linejoin="round" d="M8.11999 7.64C9.95357 7.64 11.44 6.15359 11.44 4.32C11.44 2.48641 9.95357 1 8.11999 1C6.2864 1 4.79999 2.48641 4.79999 4.32C4.79999 6.15359 6.2864 7.64 8.11999 7.64Z"/><path stroke="#000" stroke-linejoin="round" d="M3.33002 9.44H12.67C13.0413 9.44 13.3974 9.5875 13.66 9.85005C13.9225 10.1126 14.07 10.4687 14.07 10.84C14.07 11.9433 13.6317 13.0014 12.8516 13.7816C12.0714 14.5617 11.0133 15 9.91002 15H8.12002"/><path stroke="#00E9A8" stroke-linecap="square" stroke-miterlimit="10" d="M3.09997 14.79L1.40997 13.11"/><path stroke="#FF4775" stroke-linecap="square" stroke-miterlimit="10" d="M5.72998 11.43L7.40998 13.11"/><path stroke="#8061FE" stroke-linecap="square" stroke-miterlimit="10" d="M7.40998 13.11L5.72998 14.79"/><path stroke="#009AFF" stroke-linecap="square" stroke-miterlimit="10" d="M1.40997 13.11L3.09997 11.43"/></svg>